<svg width="167" height="63" viewBox="0 0 167 63" fill="none" xmlns="http://www.w3.org/2000/svg">
<g clip-path="url(#clip0)">
<path d="M2.743 4.54885H0.99V7.56785H0V0.102853H2.471C3.16536 0.0573357 3.8532 0.26085 4.411 0.676852C4.64347 0.885927 4.82546 1.14504 4.94325 1.43466C5.06104 1.72429 5.11156 2.03687 5.091 2.34885C5.10063 2.78343 4.96904 3.20941 4.716 3.56285C4.45068 3.9186 4.08605 4.1879 3.668 4.33685L5.416 7.50585V7.56785H4.363L2.743 4.54885ZM0.99 3.74885H2.502C2.92433 3.77109 3.33987 3.63567 3.668 3.36885C3.81188 3.24201 3.92554 3.08456 4.00064 2.90806C4.07574 2.73156 4.11037 2.54048 4.102 2.34885C4.11469 2.15229 4.0843 1.95532 4.01297 1.77171C3.94163 1.58811 3.83107 1.42229 3.689 1.28585C3.35149 1.01817 2.92698 0.884615 2.497 0.910852H0.99V3.74885ZM10.79 4.12285H7.554V6.76785H11.316V7.56785H6.57V0.102853H11.261V0.902853H7.554V3.30285H10.789L10.79 4.12285ZM14.837 4.24585C14.163 4.0885 13.5329 3.78198 12.993 3.34885C12.8078 3.1852 12.6604 2.98333 12.5607 2.75717C12.4611 2.53101 12.4117 2.28594 12.416 2.03885C12.4112 1.75813 12.472 1.48017 12.5936 1.22706C12.7151 0.973959 12.894 0.752693 13.116 0.580853C13.6398 0.178308 14.2891 -0.0260699 14.949 0.00385197C15.4231 -0.00378619 15.8924 0.0989185 16.32 0.303852C16.7016 0.484452 17.0249 0.768565 17.253 1.12385C17.4712 1.46497 17.5862 1.86191 17.584 2.26685H16.595C16.6053 2.06818 16.5721 1.86965 16.4977 1.68517C16.4232 1.50069 16.3093 1.33471 16.164 1.19885C15.8222 0.92137 15.3884 0.782838 14.949 0.810853C14.545 0.786558 14.1446 0.899692 13.813 1.13185C13.679 1.23719 13.5721 1.37298 13.5011 1.52795C13.4302 1.68292 13.3972 1.85259 13.405 2.02285C13.4048 2.17294 13.4397 2.32101 13.5069 2.45522C13.5741 2.58943 13.6717 2.70608 13.792 2.79585C14.1905 3.07071 14.6379 3.2669 15.11 3.37385C15.6181 3.50296 16.1074 3.69689 16.566 3.95085C16.8821 4.12852 17.1497 4.38129 17.345 4.68685C17.5194 4.98673 17.6073 5.32905 17.599 5.67585C17.6071 5.95711 17.547 6.23616 17.4239 6.48917C17.3008 6.74219 17.1183 6.96166 16.892 7.12885C16.3402 7.51741 15.674 7.70967 15 7.67485C14.5062 7.67861 14.0172 7.57808 13.565 7.37985C13.1547 7.2104 12.799 6.93119 12.537 6.57285C12.2967 6.23276 12.1703 5.82526 12.176 5.40885H13.165C13.157 5.61401 13.1981 5.81812 13.2851 6.00409C13.3721 6.19007 13.5024 6.35252 13.665 6.47785C14.0525 6.75642 14.5234 6.89468 15 6.86985C15.4244 6.89764 15.8461 6.78483 16.2 6.54885C16.3342 6.44895 16.4421 6.31792 16.5144 6.16706C16.5867 6.0162 16.6212 5.85003 16.615 5.68285C16.6234 5.52111 16.5929 5.35972 16.5261 5.21218C16.4593 5.06465 16.3581 4.93526 16.231 4.83485C15.8036 4.55786 15.3317 4.35658 14.836 4.23985L14.837 4.24585ZM24.123 0.913852H21.723V7.57285H20.744V0.907852H18.35V0.107852H24.122L24.123 0.913852ZM29.046 5.61385H25.916L25.216 7.56685H24.201L27.051 0.102853H27.916L30.771 7.56685H29.761L29.046 5.61385ZM26.216 4.81385H28.754L27.482 1.31785L26.216 4.81385ZM37.04 0.102853V5.17785C37.0503 5.49563 36.9968 5.81224 36.8828 6.10903C36.7688 6.40581 36.5964 6.67674 36.376 6.90585C35.8956 7.37189 35.258 7.64092 34.589 7.65985L34.328 7.66985C33.6165 7.70656 32.9179 7.47011 32.375 7.00885C32.1288 6.77606 31.9355 6.49308 31.8081 6.17908C31.6808 5.86508 31.6225 5.52738 31.637 5.18885V0.102853H32.616V5.15785C32.6019 5.38691 32.6341 5.61646 32.7107 5.83279C32.7874 6.04911 32.9068 6.24775 33.062 6.41685C33.2325 6.57371 33.4331 6.69437 33.6515 6.77154C33.87 6.84872 34.1018 6.8808 34.333 6.86585C34.5652 6.8816 34.7983 6.85021 35.0181 6.77356C35.2379 6.69691 35.4399 6.5766 35.612 6.41985C35.7666 6.25109 35.8855 6.05286 35.9616 5.83704C36.0377 5.62122 36.0695 5.39225 36.055 5.16385V0.103852L37.04 0.102853ZM41.431 4.54885H39.678V7.56785H38.689V0.102853H41.16C41.8544 0.0573357 42.5422 0.26085 43.1 0.676852C43.3323 0.886023 43.5141 1.14518 43.6317 1.4348C43.7493 1.72442 43.7997 2.03695 43.779 2.34885C43.7883 2.784 43.656 3.21038 43.402 3.56385C43.1367 3.9196 42.772 4.1889 42.354 4.33785L44.107 7.50585V7.56785H43.051L41.431 4.54885ZM39.678 3.74885H41.19C41.6123 3.77109 42.0279 3.63567 42.356 3.36885C42.4999 3.24201 42.6135 3.08456 42.6886 2.90806C42.7637 2.73156 42.7984 2.54048 42.79 2.34885C42.8027 2.15229 42.7723 1.95532 42.701 1.77171C42.6296 1.58811 42.5191 1.42229 42.377 1.28585C42.0395 1.01817 41.615 0.884615 41.185 0.910852H39.678V3.74885ZM49.378 5.61985H46.252L45.552 7.57285H44.535L47.385 0.108852H48.246L51.101 7.57285H50.091L49.378 5.61985ZM46.548 4.81985H49.086L47.816 1.31785L46.548 4.81985ZM57.943 7.56685H56.954L53.196 1.81485V7.56685H52.206V0.102853H53.195L56.963 5.88085V0.102853H57.942L57.943 7.56685ZM64.799 0.907852H62.399V7.56685H61.42V0.907852H59.027V0.107852H64.799V0.907852Z" fill="#6200EE"/>
<path d="M20.8236 37.3221C21.947 36.2284 23.2834 35.3775 24.7496 34.8221C26.435 34.1829 28.2575 33.9926 30.0386 34.2701L32.9546 27.2631C33.8419 25.1443 34.9056 23.1038 36.1346 21.1631C36.8139 20.0294 37.6562 19.0017 38.6346 18.1131C39.4846 17.3589 40.4345 16.7256 41.4576 16.2311C41.0249 16.1444 40.6139 16.0578 40.2246 15.9711C39.8353 15.8844 39.4243 15.7764 38.9916 15.6471C37.7456 15.3233 36.4744 15.1062 35.1916 14.9981C33.7229 14.8685 32.2452 14.8792 30.7786 15.0301C29.194 15.1912 27.629 15.5064 26.1056 15.9711C24.4964 16.4607 22.9584 17.159 21.5306 18.0481C16.5553 21.1201 13.3553 25.9224 11.9306 32.4551C11.8398 32.9789 11.636 33.4766 11.3334 33.9136C11.0309 34.3507 10.6368 34.7167 10.1786 34.9861C9.36291 35.4855 8.40124 35.6915 7.45259 35.5701C6.56272 35.4487 5.74629 35.011 5.15259 34.3371C4.82929 33.9324 4.60996 33.4547 4.51374 32.9457C4.41752 32.4367 4.44734 31.9119 4.60059 31.4171C5.01736 29.5148 5.67148 27.6723 6.54759 25.9331C7.39886 24.2461 8.43271 22.6576 9.63059 21.1961C10.806 19.7612 12.1094 18.4361 13.5246 17.2371C14.8972 16.0715 16.362 15.019 17.9046 14.0901C19.5104 13.1156 21.2187 12.3212 22.9986 11.7211C24.8536 11.0901 26.7666 10.6446 28.7096 10.3911C30.6775 10.1314 32.6645 10.0444 34.6476 10.1311C36.5548 10.2053 38.4481 10.4883 40.2936 10.9751C42.4199 11.5762 44.5898 12.0108 46.7836 12.2751C48.1725 12.4394 49.5731 12.4829 50.9696 12.4051C51.7427 12.3738 52.507 12.23 53.2386 11.9781C53.6926 11.7834 53.9629 11.6644 54.0496 11.6211C54.4758 11.1785 55.0531 10.9126 55.6665 10.8764C56.2799 10.8403 56.8844 11.0366 57.3596 11.4261C57.8606 11.8664 58.1741 12.4819 58.2356 13.1461C58.2733 13.461 58.2372 13.7804 58.1301 14.0789C58.023 14.3775 57.8479 14.647 57.6186 14.8661C57.2675 15.2776 56.8509 15.6283 56.3856 15.9041C55.3667 16.5008 54.2433 16.8972 53.0756 17.0721C51.3155 17.3438 49.5298 17.4092 47.7546 17.2671C46.3691 17.3023 45.0479 17.8586 44.0546 18.8251C42.7585 20.0197 41.6435 21.3969 40.7446 22.9131C39.6121 24.7807 38.6039 26.7209 37.7266 28.7211C36.7533 30.9058 35.7906 33.1448 34.8386 35.4381C35.9186 35.5913 37.0194 35.492 38.0546 35.1481C38.6839 34.9319 39.2836 34.6376 39.8396 34.2721C40.099 34.084 40.3933 33.9498 40.7054 33.8774C41.0175 33.8049 41.3409 33.7956 41.6566 33.8501C41.9721 33.8999 42.2736 34.0152 42.5419 34.1884C42.8102 34.3617 43.0394 34.5891 43.2146 34.8561C43.4043 35.121 43.5393 35.421 43.6118 35.7386C43.6842 36.0563 43.6927 36.3852 43.6366 36.7061C43.5899 37.0269 43.4762 37.3343 43.3029 37.6082C43.1296 37.8822 42.9005 38.1165 42.6306 38.2961C41.2977 39.2447 39.7663 39.8773 38.1526 40.1461C36.4252 40.424 34.6604 40.3669 32.9546 39.9781C32.0459 42.2708 31.0833 44.4988 30.0666 46.6621C29.1039 48.7242 28.0204 50.7277 26.8216 52.6621C25.7429 54.4132 24.4812 56.0447 23.0576 57.5291C21.7835 58.8734 20.249 59.9441 18.5476 60.6761C17.3913 61.2343 16.1708 61.6484 14.9136 61.9091C13.8878 62.1152 12.8448 62.2236 11.7986 62.2331C10.3217 62.2725 8.85252 62.0073 7.48259 61.4541C6.5129 61.0557 5.58836 60.5552 4.72459 59.9611C3.00877 58.6823 1.68292 56.951 0.895586 54.9611C0.0731778 52.9258 -0.195599 50.709 0.116586 48.5361C0.438371 45.8676 1.55782 43.3582 3.32859 41.3361C5.25281 39.1737 7.67015 37.5073 10.3756 36.4781C10.668 36.3496 10.9847 36.2859 11.3041 36.2914C11.6234 36.2969 11.9378 36.3715 12.2256 36.5101C12.5247 36.6267 12.7967 36.8035 13.0245 37.0298C13.2523 37.256 13.4311 37.5266 13.5498 37.825C13.6684 38.1233 13.7244 38.4428 13.7142 38.7637C13.7041 39.0846 13.6279 39.3999 13.4906 39.6901C13.3795 39.9832 13.2056 40.2483 12.981 40.4669C12.7563 40.6854 12.4866 40.8521 12.1906 40.9551C10.2883 41.6992 8.579 42.8639 7.19059 44.3621C5.96737 45.7031 5.19701 47.395 4.98859 49.1981C4.76593 50.5207 4.91194 51.8791 5.41059 53.1241C5.88414 54.3799 6.73375 55.4589 7.8434 56.2138C8.95304 56.9687 10.2687 57.3628 11.6106 57.3421C13.3319 57.3215 15.0318 56.9573 16.6106 56.2711C17.8833 55.6743 19.0206 54.8235 19.9526 53.7711C21.0896 52.5217 22.1005 51.1631 22.9706 49.7151C23.9751 48.0588 24.8852 46.3471 25.6966 44.5881C26.5633 42.7274 27.4069 40.8021 28.2276 38.8121C27.1632 38.6709 26.0811 38.7481 25.0476 39.0391C24.2714 39.2448 23.5566 39.6356 22.9646 40.1781C22.7686 40.3875 22.5327 40.5556 22.2708 40.6726C22.009 40.7895 21.7263 40.8529 21.4396 40.8591C21.2149 40.8578 20.9929 40.8111 20.7867 40.7219C20.5805 40.6327 20.3944 40.5029 20.2396 40.3401C20.0848 40.1643 19.9699 39.9571 19.9028 39.7327C19.8357 39.5083 19.8178 39.272 19.8506 39.0401C19.963 38.3709 20.3075 37.7627 20.8236 37.3221ZM48.3716 49.9781C47.854 49.6416 47.3833 49.2381 46.9716 48.7781C46.4935 48.24 46.1292 47.6107 45.9006 46.9281C45.625 46.0806 45.5041 45.1904 45.5436 44.3001C45.6002 43.0946 45.8296 41.9035 46.2246 40.7631C46.7467 39.1873 47.4205 37.6658 48.2366 36.2201C49.1033 34.6628 49.9469 33.1701 50.7676 31.7421C51.3736 30.7901 51.9793 29.7734 52.5846 28.6921C53.0345 27.9953 53.3634 27.2275 53.5576 26.4211C53.5499 26.0969 53.6079 25.7746 53.7282 25.4734C53.8485 25.1723 54.0286 24.8987 54.2576 24.6691C54.471 24.4417 54.7292 24.2608 55.0159 24.1379C55.3026 24.0151 55.6117 23.9528 55.9236 23.9551C56.2426 23.9475 56.56 24.0039 56.8569 24.1208C57.1539 24.2378 57.4244 24.413 57.6526 24.6361C58.1218 25.0884 58.3974 25.7049 58.4216 26.3561C58.3719 27.4921 58.0641 28.6018 57.5216 29.6011C56.9216 30.8124 56.0676 32.3701 54.9596 34.2741C54.4476 35.1828 53.8476 36.2318 53.1596 37.4211C52.5035 38.5453 51.9089 39.7044 51.3786 40.8931C50.9255 41.8756 50.5986 42.9115 50.4056 43.9761C50.2543 44.9094 50.4383 45.5261 50.9576 45.8261C51.1139 45.8803 51.2795 45.9024 51.4446 45.8911C51.7724 45.8676 52.0922 45.7793 52.3856 45.6311C52.8925 45.3906 53.3785 45.1083 53.8386 44.7871C54.5486 44.2933 55.2238 43.7514 55.8596 43.1651C56.6283 42.4731 57.3773 41.7268 58.1066 40.9261C58.8359 40.1254 59.5186 39.3458 60.1546 38.5871C60.7819 37.8298 61.3336 37.1484 61.8096 36.5431C62.2856 35.9378 62.6523 35.4401 62.9096 35.0501C63.1993 34.6094 63.6186 34.2695 64.1096 34.0771C64.2814 34.0115 64.4645 33.9805 64.6483 33.986C64.8321 33.9915 65.013 34.0333 65.1806 34.1091C65.3328 34.1877 65.463 34.3031 65.5593 34.4447C65.6557 34.5863 65.7153 34.7497 65.7326 34.9201C65.7469 35.1683 65.7112 35.4169 65.6275 35.6511C65.5438 35.8852 65.414 36.1001 65.2456 36.2831C64.8136 36.883 64.4234 37.5118 64.0776 38.1651C63.5149 39.1604 62.8009 40.2854 61.9356 41.5401C61.0703 42.7948 60.0989 44.0818 59.0216 45.4011C58.021 46.6452 56.8887 47.7775 55.6446 48.7781C54.5805 49.6532 53.3378 50.2846 52.0036 50.6281C51.3863 50.7783 50.7444 50.798 50.119 50.6861C49.4937 50.5742 48.8985 50.3331 48.3716 49.9781ZM62.9086 18.4381C62.9086 19.247 62.5872 20.0228 62.0153 20.5948C61.4433 21.1668 60.6675 21.4881 59.8586 21.4881C59.0497 21.4881 58.2739 21.1668 57.7019 20.5948C57.1299 20.0228 56.8086 19.247 56.8086 18.4381C56.8086 17.6292 57.1299 16.8534 57.7019 16.2814C58.2739 15.7094 59.0497 15.3881 59.8586 15.3881C60.6675 15.3881 61.4433 15.7094 62.0153 16.2814C62.5872 16.8534 62.9086 17.6292 62.9086 18.4381ZM78.3216 50.8851C77.6206 50.8969 76.9247 50.7648 76.2767 50.497C75.6288 50.2292 75.0427 49.8314 74.5546 49.3281C72.7806 47.5541 72.4562 45.1541 73.5816 42.1281C73.998 40.9898 74.5196 39.8927 75.1396 38.8511C75.7882 37.7478 76.4589 36.6338 77.1516 35.5091C77.8002 34.4704 78.4276 33.4214 79.0336 32.3621C79.5737 31.4423 80.0299 30.4757 80.3966 29.4741C80.7426 28.6074 80.8506 28.0341 80.7206 27.7541C80.6411 27.5548 80.5318 27.3687 80.3966 27.2021C80.3393 27.1394 80.2737 27.0849 80.2016 27.0401C80.0711 27.0224 79.9384 27.0333 79.8126 27.0721C78.8403 27.377 77.9443 27.8861 77.1846 28.5651C75.7522 29.7558 74.4362 31.0801 73.2546 32.5201C71.4217 34.7149 69.6999 37.0001 68.0956 39.3671C66.1702 42.1578 64.0612 45.5214 61.7686 49.4581C61.6174 49.7418 61.4099 49.9917 61.1589 50.1925C60.9079 50.3933 60.6185 50.5409 60.3086 50.6261C60.0098 50.7133 59.6958 50.7352 59.3878 50.6904C59.0798 50.6455 58.7851 50.5349 58.5236 50.3661C58.2363 50.2304 57.9809 50.0355 57.7741 49.7942C57.5673 49.553 57.4138 49.2708 57.3236 48.9661C57.2263 48.6624 57.1906 48.3424 57.2184 48.0248C57.2462 47.7072 57.337 47.3982 57.4856 47.1161L69.3006 23.7591C69.4338 23.4735 69.6283 23.2208 69.8703 23.019C70.1123 22.8171 70.3958 22.671 70.7006 22.5911C71.3135 22.417 71.968 22.463 72.5506 22.7211C72.9918 22.8415 73.3915 23.0807 73.7063 23.4125C74.021 23.7443 74.2387 24.1561 74.3356 24.6031C74.5304 25.5117 74.38 26.4603 73.9136 27.2641C75.264 25.5464 76.9975 24.1683 78.9756 23.2401C79.6834 22.8713 80.4758 22.6952 81.2732 22.7294C82.0706 22.7636 82.845 23.007 83.5186 23.4351C83.942 23.7288 84.3137 24.0907 84.6186 24.5061C84.98 24.9917 85.2445 25.5424 85.3976 26.1281C85.5785 26.8377 85.6444 27.5717 85.5926 28.3021C85.5228 29.2543 85.3264 30.1929 85.0086 31.0931C84.5812 32.3 84.038 33.4628 83.3866 34.5651C82.6946 35.7551 81.9806 36.9341 81.2446 38.1021C80.8986 38.7081 80.4876 39.4111 80.0116 40.2111C79.5356 41.0111 79.1022 41.7898 78.7116 42.5471C78.3648 43.1995 78.0822 43.8841 77.8676 44.5911C77.6943 45.1971 77.7376 45.6304 77.9976 45.8911C78.0352 45.9313 78.0791 45.965 78.1276 45.9911C78.2548 46.0217 78.386 46.0325 78.5166 46.0231C79.3501 45.8877 80.1389 45.554 80.8166 45.0501C81.8867 44.3342 82.8961 43.5315 83.8346 42.6501C85.0015 41.5668 86.1066 40.4186 87.1446 39.2111C88.2863 37.8913 89.3482 36.5045 90.3246 35.0581C90.6257 34.5723 91.0667 34.1889 91.5896 33.9581C91.7597 33.8736 91.9462 33.8269 92.1361 33.8214C92.326 33.8159 92.5148 33.8516 92.6896 33.9261C92.836 34.0136 92.9576 34.137 93.0428 34.2848C93.1281 34.4325 93.1741 34.5996 93.1766 34.7701C93.1803 35.3026 92.9965 35.8194 92.6576 36.2301C92.5276 36.4461 92.2462 36.9438 91.8136 37.7231C91.3809 38.5024 90.8402 39.4111 90.1916 40.4491C89.5462 41.4791 88.8006 42.5888 87.9546 43.7781C87.1336 44.9405 86.2221 46.0362 85.2286 47.0551C84.3017 48.011 83.2798 48.8697 82.1786 49.6181C81.2304 50.2905 80.1234 50.7041 78.9666 50.8181C78.7559 50.8711 78.5387 50.8937 78.3216 50.8851ZM94.0546 50.8201C93.0374 50.8252 92.0346 50.58 91.1346 50.1061C88.9713 48.8948 87.9329 46.8398 88.0196 43.9411C88.1154 42.0636 88.5437 40.2179 89.2846 38.4901C90.1652 36.3499 91.2633 34.3059 92.5616 32.3901C93.946 30.4128 95.5337 28.5858 97.2986 26.9391C98.7932 25.5157 100.501 24.3348 102.361 23.4391C105.951 21.7058 109.151 21.7708 111.961 23.6341L113.778 20.2591C114.384 19.1344 114.935 18.0638 115.433 17.0471C115.93 16.0304 116.352 15.1111 116.698 14.2891C116.993 13.6177 117.232 12.923 117.412 12.2121C117.47 11.8976 117.593 11.5987 117.774 11.3346C117.954 11.0704 118.188 10.8469 118.46 10.6781C118.723 10.4991 119.019 10.3752 119.332 10.3139C119.644 10.2525 119.965 10.255 120.277 10.3211C120.589 10.3795 120.885 10.5019 121.148 10.6805C121.41 10.8592 121.633 11.0902 121.802 11.3591C121.983 11.6335 122.108 11.9411 122.169 12.2642C122.23 12.5873 122.227 12.9194 122.159 13.2411C121.464 15.8895 120.416 18.4323 119.044 20.8011C117.31 24.0678 115.039 28.1011 112.23 32.9011L112.1 33.1611C111.908 33.4531 111.735 33.7567 111.581 34.0701C111.407 34.4161 111.213 34.7621 110.997 35.1081C109.658 37.4008 108.714 39.9023 108.206 42.5081C108.004 43.2806 107.949 44.0843 108.044 44.8771C108.152 45.4178 108.271 45.7314 108.401 45.8181C108.617 45.9481 109.103 45.8508 109.861 45.5261C110.995 44.9154 112.016 44.114 112.879 43.1571C114.187 41.9288 115.391 40.5938 116.479 39.1661C117.625 37.6734 118.674 36.2998 119.626 35.0451C119.876 34.6026 120.28 34.2677 120.762 34.1041C121.103 33.9908 121.475 34.0141 121.8 34.1691C121.943 34.2503 122.067 34.3622 122.163 34.4968C122.258 34.6315 122.323 34.7856 122.352 34.9481C122.38 35.1846 122.361 35.4245 122.294 35.6531C122.227 35.8818 122.114 36.0944 121.963 36.2781C121.481 36.911 121.037 37.5718 120.633 38.2571C120.092 39.1438 119.475 40.1281 118.783 41.2101C118.09 42.2921 117.333 43.4061 116.512 44.5521C115.735 45.643 114.889 46.6835 113.981 47.6671C113.192 48.5321 112.298 49.2951 111.32 49.9381C110.536 50.4819 109.612 50.7863 108.659 50.8141C107.667 50.8024 106.699 50.5098 105.868 49.9701C105.21 49.5759 104.646 49.0445 104.213 48.4121C103.654 47.5543 103.309 46.5754 103.207 45.5571C101.851 46.9691 100.337 48.2213 98.6966 49.2891C97.331 50.2398 95.7178 50.7718 94.0546 50.8201ZM109.565 27.9121C109.521 27.9121 109.456 27.8688 109.37 27.7821C109.24 27.6954 109.056 27.5764 108.818 27.4251C108.529 27.2557 108.209 27.1456 107.877 27.1011C107.411 27.0368 106.939 27.0476 106.477 27.1331C105.792 27.2656 105.127 27.4837 104.498 27.7821C102.939 28.5685 101.515 29.598 100.28 30.8321C98.9023 32.1642 97.6628 33.6316 96.5796 35.2121C95.5538 36.6902 94.6736 38.2642 93.9516 39.9121C93.3496 41.1985 92.9866 42.5838 92.8806 44.0001C92.7887 44.4755 92.8573 44.9679 93.0756 45.4001C93.2489 45.5948 93.3786 45.7354 93.4646 45.8221C93.9839 46.1248 94.7506 45.9951 95.7646 45.4331C97.0537 44.6596 98.2284 43.7098 99.2546 42.6111C100.757 41.0497 102.156 39.3912 103.441 37.6461C105.059 35.4582 106.523 33.1595 107.821 30.7671L108.145 30.3131L109.565 27.9121ZM126.345 50.8851C124.289 51.0324 122.253 50.4077 120.634 49.1331C119.517 48.1391 118.735 46.8245 118.395 45.3691C118.068 43.8866 118.034 42.3546 118.295 40.8591C118.568 39.2379 119.048 37.6583 119.723 36.1591C120.392 34.6416 121.195 33.1866 122.123 31.8111C123.208 30.1631 124.458 28.6301 125.855 27.2361C127.162 25.9074 128.634 24.7517 130.236 23.7971C131.614 22.9585 133.148 22.4068 134.746 22.1751C136.192 21.9714 137.666 22.2568 138.932 22.9861C139.972 23.5497 140.811 24.4235 141.332 25.4861C141.857 26.5859 142.038 27.8187 141.851 29.0231C141.758 30.0828 141.472 31.1166 141.007 32.0731C140.528 33.0728 139.928 34.0101 139.222 34.8641C138.5 35.7358 137.658 36.5005 136.722 37.1351C135.783 37.7779 134.755 38.2809 133.672 38.6281C133.106 38.7745 132.533 38.8913 131.955 38.9781C131.235 39.0879 130.505 39.1097 129.781 39.0431C128.946 38.965 128.126 38.7683 127.347 38.4591C126.413 38.0849 125.53 37.5943 124.719 36.9991C124.301 37.827 123.944 38.6835 123.648 39.5621C123.383 40.3309 123.199 41.1247 123.096 41.9311C123.007 42.6115 123.029 43.3017 123.161 43.9751C123.263 44.5495 123.534 45.0804 123.94 45.5001C124.449 45.967 125.061 46.3074 125.726 46.4935C126.391 46.6796 127.091 46.7062 127.769 46.5711C129.64 46.3005 131.444 45.6844 133.09 44.7541C135.16 43.6211 137.097 42.2607 138.866 40.6981C140.814 39.009 142.577 37.1162 144.123 35.0521C144.417 34.5676 144.861 34.1917 145.388 33.9811C145.561 33.9056 145.748 33.8667 145.938 33.8667C146.127 33.8667 146.314 33.9056 146.488 33.9811C146.634 34.0686 146.756 34.192 146.841 34.3398C146.926 34.4875 146.972 34.6546 146.975 34.8251C146.97 35.3678 146.761 35.8889 146.391 36.2851C143.669 40.141 140.45 43.6214 136.819 46.6361C133.639 49.1694 130.664 50.5648 127.896 50.8221C127.638 50.8652 127.378 50.887 127.117 50.8871L126.345 50.8851ZM127.383 32.8441C128.012 33.4382 128.789 33.8534 129.633 34.0467C130.477 34.2401 131.357 34.2047 132.183 33.9441C133.209 33.6483 134.146 33.1019 134.909 32.3541C135.639 31.6599 136.262 30.8616 136.759 29.9851C137.171 29.2893 137.436 28.5164 137.538 27.7141C137.599 27.4482 137.579 27.1699 137.481 26.9153C137.383 26.6607 137.21 26.4415 136.986 26.2861C136.72 26.1523 136.43 26.0772 136.133 26.066C135.836 26.0547 135.54 26.1077 135.266 26.2211C134.379 26.4983 133.537 26.9025 132.766 27.4211C131.761 28.0824 130.826 28.8432 129.975 29.6921C129.003 30.6493 128.134 31.7058 127.383 32.8441ZM144.743 35.0501C145.349 34.0981 145.954 33.0598 146.56 31.9351C147.165 30.8104 147.727 29.6641 148.247 28.4961C148.748 27.3732 149.192 26.2253 149.577 25.0571C149.907 24.0843 150.156 23.0859 150.323 22.0721C150.397 21.3165 150.743 20.6135 151.296 20.0931C151.499 19.8891 151.743 19.7291 152.011 19.6233C152.279 19.5175 152.566 19.4681 152.855 19.4781C153.122 19.5078 153.377 19.6075 153.593 19.7671C153.81 19.9267 153.98 20.1405 154.088 20.3871C154.399 21.2021 154.399 22.1031 154.088 22.9181C155.103 22.9653 156.107 23.151 157.073 23.4701C158.075 23.8001 158.941 24.45 159.539 25.3201C160.292 26.529 160.569 27.9743 160.318 29.3761C159.949 31.3513 159.2 33.236 158.112 34.9251C156.814 37.0884 155.808 38.8081 155.094 40.0841C154.449 41.1993 153.937 42.3865 153.569 43.6211C153.393 44.159 153.273 44.7136 153.212 45.2761C153.19 45.6441 153.224 45.8711 153.312 45.9571C153.627 45.902 153.932 45.8037 154.221 45.6651C154.946 45.2986 155.613 44.8268 156.2 44.2651C157.308 43.2514 158.338 42.156 159.283 40.9881C160.8 39.105 162.187 37.1211 163.436 35.0501C163.724 34.5406 164.151 34.1242 164.669 33.8501C164.841 33.7563 165.031 33.699 165.226 33.6818C165.422 33.6646 165.619 33.6878 165.805 33.7501C165.964 33.8139 166.103 33.9203 166.206 34.0577C166.309 34.1951 166.372 34.3582 166.389 34.5291C166.41 35.0689 166.237 35.5985 165.902 36.0221C165.21 37.1468 164.366 38.5528 163.371 40.2401C162.375 41.9274 161.315 43.5498 160.191 45.1071C159.162 46.5541 157.999 47.9013 156.719 49.1311C155.841 50.1087 154.621 50.7125 153.312 50.8181C152.139 50.8648 150.995 50.4448 150.132 49.6501C149.245 48.9343 148.628 47.9392 148.38 46.8271C148.174 45.5905 148.263 44.3228 148.64 43.1271C149.128 41.4761 149.78 39.8782 150.587 38.3571C151.495 36.5831 152.599 34.5931 153.897 32.3871C154.576 31.3986 155.081 30.3011 155.39 29.1421C155.476 28.4934 155.52 28.1474 155.52 28.1041C155.25 27.9499 154.952 27.8506 154.644 27.8121C153.7 27.7212 152.748 27.7759 151.821 27.9741C151.388 28.7961 150.934 29.6398 150.458 30.5051C149.982 31.3704 149.527 32.1818 149.095 32.9391C148.662 33.6964 148.262 34.3778 147.895 34.9831C147.632 35.4356 147.339 35.87 147.019 36.2831C146.735 36.7094 146.327 37.0379 145.851 37.2241C145.501 37.3737 145.108 37.3852 144.751 37.2561C144.603 37.1932 144.475 37.0898 144.384 36.9579C144.292 36.8259 144.239 36.6707 144.232 36.5101C144.238 35.9811 144.418 35.4688 144.743 35.0511V35.0501Z" fill="#6200EE"/>
</g>
<defs>
<clipPath id="clip0">
<rect width="166.4" height="62.242" fill="white"/>
</clipPath>
</defs>
</svg>
